<svg xmlns="http://www.w3.org/2000/svg" viewBox="0 0 1024 1024">
<path d="M383.320545 225.281795v-54.398924h369.242698v54.398924h-369.242698zM273.980707 286.71458a68.158652 68.158652 0 1 1 68.27465-68.158652 68.216651 68.216651 0 0 1-68.236651 68.168652z"/><path d="M898.672353 700.110405a175.854522 175.854522 0 0 0 90.666207-23.997525v72.716562a242.088213 242.088213 0 0 1-106.050902 19.923606q-84.182335 0-133.53036-50.316005t-49.445022-134.03435q0-88.053259 55.153909-144.11715t142.433184-56.034892a256.688924 256.688924 0 0 1 91.439191 14.15672v76.558486a166.652704 166.652704 0 0 0-85.633306-22.081563 114.062744 114.062744 0 0 0-87.279274 34.834311 127.570477 127.570477 0 0 0-32.705353 90.955201 124.067547 124.067547 0 0 0 31.059385 88.053259 109.078843 109.078843 0 0 0 83.893341 33.38334zM157.674007 170.552877a68.27465 68.27465 0 1 1 68.27465 68.158652 68.216651 68.216651 0 0 1-68.27465-68.158652z m184.621349-47.684057h369.242698v54.457923H342.293356v-54.438923zM465.374922 737.305669h34.756313V409.554151h-34.756313v-40.910191h164.106755v40.910191H583.578585V737.27567h45.904092v40.94019H465.374922v-40.93919z m451.296075-484.610416V204.8062c1.547969-94.391133-11.708768-143.459163-43.833133-143.362165H139.985357c-32.144364 0.096998-42.295164 89.920222-43.853133 184.321355v3.463931c46.079089 34.330321 104.134941 120.225622 102.567972 221.815614a307.343922 307.343922 0 0 1-102.567972 218.555678v191.026222c-1.556969 94.401133 33.644335 82.025378 65.798699 81.91838h710.915941c32.125365-0.095998 42.285164 12.482753 43.834133-81.91838V819.19405h61.539783v102.393975c-1.547969 94.400133-54.960913 102.305977-86.698285 102.401975H99.645154c-31.786371 0.096998-66.591683-8.001842-65.052713-102.401975v-286.71433c24.054524-0.077998 101.405995-88.324253 102.567972-163.83676s-78.513447-163.914759-102.567972-163.83676V122.88782C36.129411 28.497686 89.543354 0.107248 121.337725 0.00025h791.848341c31.738372-0.096998 66.572683 28.486437 65.023715 122.88757v163.83676h-95.213118a251.80302 251.80302 0 0 1 33.673334-34.069326z"/>
</svg>