<svg xmlns="http://www.w3.org/2000/svg" viewBox="0 0 1024 1024">
<path d="M900.5 583.8c-25.7-149.9-146-323.2-216.4-414.5-2.5-3.7-5.1-6.7-7.1-8.7-60.1-72.7-120.4-121-123-123.1L511.8 4l-41.9 33.7c-2.6 2-62.8 51-122.7 123.5-2 2.2-4.6 5.1-7.1 8.9-85.7 111.7-192.2 273.4-216.4 413.4-4.6 31.9-4.8 51.3-4.8 53.4-0.8 104.6 40.9 202.9 117.3 276.6 74 71.3 172 110.5 275.8 110.5 103.4 0 201.1-39.3 275-110.5 76.9-74 118.9-172.8 118.1-278.3 0-1.6-0.1-21.1-4.6-51.4zM512 975.8c-191.5 0-341.5-146.1-346.7-332.4 0 0 0-17.3 4.1-45.7 22.9-133.2 131-298.2 217.7-410.8 0.7-1.3 2.1-2.6 2.8-3.3 60.3-73.5 122-123.3 122-123.3s61.7 49 122 122.6c0.7 0.7 2.1 2 2.8 3.3 86.6 112 194.7 277.7 217.7 410.3 4.1 28.4 4.1 45.7 4.1 45.7-13.3 189.5-155 333.6-346.5 333.6z"/><path d="M397.9 762.3l-20.4-22c0.4-0.4 43.5-41.2 43.8-88.1 0.1-25.5-12.5-40.6-27-58-15.6-18.7-33.4-39.9-35.2-75.1-4.3-84.1 59.8-143.8 62.6-146.3l20.3 22.1-10.1-11.1 10.1 11c-0.6 0.5-56.5 53-52.9 122.7 1.3 25.2 13.8 40.1 28.2 57.4 16 19.2 34.2 40.9 34 77.4-0.3 60.1-51.2 108-53.4 110zM507 762.3l-20.4-22c0.4-0.4 43.5-41.2 43.8-88.1 0.1-25.5-12.5-40.6-27-58-15.6-18.7-33.4-39.9-35.2-75.1-4.3-84.1 59.8-143.8 62.6-146.3l20.3 22.1c-0.6 0.5-56.5 53-52.9 122.7 1.3 25.2 13.8 40.1 28.2 57.4 16 19.2 34.2 40.9 34 77.4-0.3 60-51.2 107.9-53.4 109.9zM611.7 762.3l-20.4-22c0.4-0.4 43.5-41.2 43.8-88.1 0.1-25.5-12.5-40.6-27-58-15.6-18.7-33.4-39.9-35.2-75.1-4.3-84.1 59.8-143.8 62.6-146.3l20.3 22.1-10.1-11.1 10.1 11c-0.6 0.5-56.5 53-52.9 122.7 1.3 25.2 13.8 40.1 28.2 57.4 16 19.2 34.2 40.9 34 77.4-0.3 60.1-51.2 108-53.4 110z"/>
</svg>