<svg xmlns="http://www.w3.org/2000/svg" viewBox="0 0 1117 1024">
<path d="M558.545455 18.618182a344.901818 344.901818 0 0 1 309.387636 192.325818l4.049454 8.610909 6.004364 1.256727a283.927273 283.927273 0 0 1 220.253091 265.681455l0.232727 11.077818a284.020364 284.020364 0 0 1-217.274182 276.061091 267.636364 267.636364 0 0 0-14.382545-54.039273 228.026182 228.026182 0 0 0-18.525091-447.534545l-15.825454-2.327273-5.957819-14.801454a289.093818 289.093818 0 0 0-535.877818-0.046546l-6.004363 14.754909-15.825455 2.327273A228.119273 228.119273 0 0 0 209.454545 705.908364c-7.586909 17.035636-13.498182 34.909091-17.408 53.294545A284.066909 284.066909 0 0 1 239.104 220.765091l6.004364-1.256727 4.049454-8.610909A344.901818 344.901818 0 0 1 545.698909 18.850909z"/><path d="M558.545455 297.890909a27.927273 27.927273 0 0 1 27.554909 23.412364L586.472727 325.818182v512a27.927273 27.927273 0 0 1-55.482182 4.514909L530.618182 837.818182V325.818182a27.927273 27.927273 0 0 1 27.927273-27.927273zM212.992 445.719273a27.927273 27.927273 0 0 1 39.470545 0c64.093091 64.046545 112.407273 128.465455 144.896 193.442909 9.867636 19.735273 19.642182 43.706182 29.370182 71.912727l8.378182 25.274182 4.096 13.405091 8.331636 28.392727c1.396364 4.887273 2.746182 9.914182 4.096 14.987636l8.285091 31.557819 8.238546 33.652363 8.238545 35.746909 8.238546 37.888c2.746182 12.986182 5.492364 26.298182 8.192 40.029091a27.927273 27.927273 0 0 1-54.737455 10.938182l-8.005818-38.865454-7.912727-36.724364-8.005818-34.629818-7.912728-32.488728-7.912727-30.394181c-2.653091-9.774545-5.306182-19.223273-7.912727-28.299637l-7.912728-26.158545-7.866181-24.017455a832.698182 832.698182 0 0 0-3.909819-11.170909l-7.819636-20.852363a443.438545 443.438545 0 0 0-15.546182-35.23491c-29.602909-59.205818-74.333091-118.877091-134.376727-178.920727a27.927273 27.927273 0 0 1 0-39.470545zM904.098909 445.719273a27.927273 27.927273 0 0 0-39.470545 0c-64.093091 64.046545-112.407273 128.465455-144.896 193.442909-9.867636 19.735273-19.642182 43.706182-29.370182 71.912727l-8.331637 25.274182-4.18909 13.405091-8.238546 28.392727-4.189091 14.987636-8.238545 31.557819-8.238546 33.652363-8.238545 35.746909-8.238546 37.888c-2.746182 12.986182-5.445818 26.298182-8.192 40.029091a27.927273 27.927273 0 0 0 54.737455 10.938182l8.005818-38.865454 7.912727-36.724364 8.005819-34.629818 7.912727-32.488728 7.912727-30.394181c2.653091-9.774545 5.306182-19.223273 7.912727-28.299637l7.912728-26.158545 7.866181-24.017455 3.909819-11.170909 7.819636-20.852363c5.213091-13.172364 10.379636-24.901818 15.546182-35.23491 29.602909-59.205818 74.333091-118.877091 134.376727-178.920727a27.927273 27.927273 0 0 0 0-39.470545z"/>
</svg>